<svg width="24" height="22" viewBox="0 0 24 22" fill="none" xmlns="http://www.w3.org/2000/svg">
<g id="Group 45">
<path id="Path" d="M15.9945 16.8041C14.4175 16.8041 12.9411 16.1866 11.8457 15.1387" stroke="#828282" stroke-width="2" stroke-linecap="round" stroke-linejoin="round"/>
<path id="Path_2" d="M7.14938 6.85616C5.78339 5.56428 3.951 4.8042 1.99463 4.8042" stroke="#828282" stroke-width="2" stroke-linecap="round" stroke-linejoin="round"/>
<g id="Group">
<path id="Path 2 Copy 2" d="M22.6378 17.8481C23.2645 17.4564 23.2645 16.5438 22.6378 16.1521L17.5246 12.9563C16.8586 12.5401 15.9946 13.0189 15.9946 13.8043V20.1958C15.9946 20.9813 16.8586 21.4601 17.5246 21.0438L22.6378 17.8481Z" fill="#828282"/>
<path id="Path 5 Copy" d="M15.9946 4.8042V4.8042C13.5724 4.8042 11.3878 6.26063 10.4562 8.49651L8.91771 12.1888C7.75318 14.9837 5.02239 16.8042 1.99463 16.8042V16.8042" stroke="#828282" stroke-width="2" stroke-linecap="round" stroke-linejoin="round"/>
<path id="Path 2 Copy" d="M21.6378 5.84808C22.2645 5.45642 22.2645 4.54375 21.6378 4.15209L16.5246 0.956334C15.8586 0.540054 14.9946 1.0189 14.9946 1.80433V8.19584C14.9946 8.98127 15.8586 9.46012 16.5246 9.04384L21.6378 5.84808Z" fill="#828282"/>
</g>
</g>
</svg>
